# xmcd
#
# Track frame offsets:
#	150
#	18790
#	32232
#	50355
#	63934
#	78546
#	95246
#	107268
#	121148
#
# Disc length: 1876 seconds
#
# Revision: 1
# Processed by: cddbd v1.5.2PL0 Copyright (c) Steve Scherf et al.
# Submitted via: audiograbber 1.83.01
#
DISCID=68075209
DTITLE=Steve Waylon - State of mind
DYEAR=2009
DGENRE=Country
TTITLE0=I run this joint
TTITLE1=Big Train
TTITLE2=To have that bounce
TTITLE3=No deposit no Return
TTITLE4=Simple Life got so tough
TTITLE5=Home sweet home
TTITLE6=Crush
TTITLE7=I ll come up with somebody
TTITLE8=Country state of mind
EXTD=
EXTT0=
EXTT1=
EXTT2=
EXTT3=
EXTT4=
EXTT5=
EXTT6=
EXTT7=
EXTT8=
PLAYORDER=
